<svg width="100" height="100" viewBox="0 0 100 100" fill="none" xmlns="http://www.w3.org/2000/svg">
<rect width="100" height="100" fill="white"/>
<path d="M20.1717 42.3L20.2917 42.2737L20.2896 42.1509C20.2892 42.1312 20.2889 42.1117 20.2885 42.0921C20.2866 41.9857 20.2847 41.881 20.2847 41.7758C20.2847 29.8336 30.0631 20.15 42.1283 20.15C52.5255 20.15 61.224 27.3416 63.4303 36.9726L63.4748 37.167L63.6492 37.0703C65.6995 35.934 68.061 35.2833 70.578 35.2833C78.432 35.2833 84.7963 41.5867 84.7963 49.3593C84.7963 49.6759 84.7819 49.99 84.7608 50.3037L84.7532 50.4159L84.8587 50.4546C90.6934 52.5992 94.85 58.1591 94.85 64.6796C94.85 73.0564 87.9909 79.85 79.5265 79.85H24.3419C13.7412 79.8497 5.15 71.3415 5.15 60.8493C5.15 51.7747 11.5767 44.1855 20.1717 42.3Z" fill="#1EA6C6" stroke="white" stroke-width="0.3"/>
</svg>
