<svg width="150" height="100" viewBox="0 0 150 100" fill="none" xmlns="http://www.w3.org/2000/svg">
<rect width="150" height="100" fill="white"/>
<path d="M25.4449 38.5305L26.2468 38.3563L26.2325 37.5358C26.2319 37.5026 26.2313 37.4697 26.2307 37.4373C26.2275 37.2615 26.2246 37.0964 26.2246 36.9301C26.2246 17.6576 42.1694 2 61.8806 2C78.8638 2 93.0558 13.6284 96.6533 29.175L96.951 30.4615L98.1086 29.8263C101.418 28.0103 105.231 26.97 109.297 26.97C121.989 26.97 132.244 37.0502 132.244 49.4428C132.244 49.9427 132.221 50.4429 132.186 50.9499L132.135 51.7004L132.842 51.9576C142.288 55.3948 149 64.2983 149 74.7214C149 88.1111 137.921 99 124.211 99H32.2366C14.9662 98.9996 1 85.2815 1 68.4014C1 53.8016 11.4459 41.5708 25.4449 38.5305Z" fill="#66D9FF" stroke="white" stroke-width="2"/>
</svg>
