<svg width="150" height="99" viewBox="0 0 150 99" fill="none" xmlns="http://www.w3.org/2000/svg">
<path d="M25.4449 37.5305L26.2468 37.3563L26.2325 36.5358C26.2319 36.5025 26.2313 36.4697 26.2307 36.4373C26.2275 36.2615 26.2246 36.0964 26.2246 35.9301C26.2246 16.6576 42.1694 1 61.8806 1C78.8638 1 93.0558 12.6284 96.6533 28.175L96.951 29.4615L98.1086 28.8263C101.418 27.0103 105.231 25.97 109.297 25.97C121.989 25.97 132.244 36.0502 132.244 48.4428C132.244 48.9427 132.221 49.4429 132.186 49.9499L132.135 50.7004L132.842 50.9576C142.288 54.3948 149 63.2983 149 73.7214C149 87.1111 137.921 98 124.211 98H32.2366C14.9662 97.9996 1 84.2815 1 67.4014C1 52.8016 11.4459 40.5708 25.4449 37.5305Z" fill="#66D9FF" stroke="#D4D4D4" stroke-width="2"/>
</svg>
