<svg width="150" height="99" viewBox="0 0 150 99" fill="none" xmlns="http://www.w3.org/2000/svg">
<path d="M25.554 38.3877L26.7537 38.1245L26.7324 36.8966C26.7318 36.8623 26.7312 36.8288 26.7306 36.7957C26.7274 36.6182 26.7246 36.4563 26.7246 36.2931C26.7246 17.0915 42.4504 1.5 61.8806 1.5C78.6215 1.5 92.6173 13.0787 96.1654 28.5669L96.6107 30.5105L98.3547 29.5439C101.592 27.7497 105.32 26.7222 109.297 26.7222C121.708 26.7222 131.744 36.68 131.744 48.9322C131.744 49.4228 131.722 49.9167 131.687 50.4221L131.612 51.5434L132.667 51.931C141.921 55.3326 148.5 64.1458 148.5 74.4661C148.5 87.7254 137.64 98.5 124.211 98.5H32.2366C15.2472 98.4996 1.5 84.8671 1.5 68.0822C1.5 53.5657 11.7819 41.4089 25.554 38.3877Z" fill="#66D9FF" stroke="white" stroke-width="3"/>
</svg>
